<?xml version="1.0" encoding="utf-8"?>
<!-- Generator: Adobe Illustrator 21.1.0, SVG Export Plug-In . SVG Version: 6.00 Build 0)  -->
<svg version="1.1" id="Слой_1" xmlns="http://www.w3.org/2000/svg" xmlns:xlink="http://www.w3.org/1999/xlink" x="0px" y="0px"
	 viewBox="0 0 120 84.1" enable-background="new 0 0 120 84.1" xml:space="preserve">
<g>
	<g>
		<path d="M0.5,17.7c0.5,8.2-0.1,16.4,0.4,24.6c0.1-0.5,0.2-1,0.2-1.5c0-4.2-0.1-8.3-0.2-12.5c0-1.9,0.2-3.7,0.2-5.6
			c0-1.5,0-3,0-4.6c0-0.1-0.1-0.3-0.2-0.4C-0.2,17,0,15.9,0,14.8c0-4.4,0-8.9,0-13.3c0-0.4,0-0.8,0-1.2C39.8,0.2,79.4,0.1,119.3,0
			c0,2.1,0,4,0,5.9c0,1.9,0,3.8,0,5.7c0,0,0,0,0.1,0c0-0.7,0-1.4,0-2.2c0.1,0,0.2,0,0.3,0c0,0.4,0.1,0.8,0.1,1.1
			c0,4.3,0,8.6,0.1,12.9c0,3.1,0.2,6.2,0.2,9.2c0,10.2,0,20.3,0,30.5c0,0.5,0,1,0,1.6c-40-0.3-79.8,0-119.7-0.1c0-0.2,0-0.3,0-0.5
			c1-0.1,1.9-0.3,2.9-0.3c1,0,1.9,0.3,2.9,0.3c4.2,0,8.5,0,12.7,0c1.3,0,2.5-0.1,3.8-0.1c0.6,0,1.1,0,1.7,0c1.5,0,3.1,0,4.6,0
			c0-0.1,0-0.2,0-0.3c-0.8-0.1-1.5-0.2-2.3-0.2c-3.3-0.1-6.6-0.2-9.9-0.2c-2.1,0-4.2,0.2-6.3,0.2c-3,0-6-0.1-9-0.1
			c-0.9,0-0.9-0.5-0.9-1.2c0-2.7,0.1-5.5,0-8.2C0.3,49.4,0.1,44.6,0,39.8c0-4.4,0.1-8.9,0.2-13.3c0-2.7-0.1-5.5-0.2-8.2
			c0-0.2,0-0.4,0-0.6C0.2,17.7,0.3,17.7,0.5,17.7z M112.3,56.5c0-16.1,0-32.1,0-48.2c-34.9,0-69.7,0-104.6,0c0,16.1,0,32.1,0,48.2
			C42.6,56.5,77.4,56.5,112.3,56.5z"/>
		<path d="M82,51.7c-2.5,0-4.9,0-7.3,0c-0.2,0-0.6-0.6-0.7-1c-1.9-6.3-3.7-12.5-5.6-18.8c-1.8-6-3.5-12-5.3-17.9
			c-0.1-0.2-0.1-0.5-0.2-0.9c2,0,3.9,0,5.8,0c0.2,0,0.5,0.6,0.6,0.9c1.5,4.8,2.9,9.6,4.3,14.4c0.1,0.4,0.2,0.8,0.6,1.1
			c0-5.4,0-10.8,0-16.4c2.3,0,4.5,0,6.7,0c0.2,0,0.5,0.5,0.5,0.7c0,1.2,0.1,2.5,0,3.7c0,0.6-0.3,1.2-0.1,1.9
			c0.1-0.4,0.1-0.8,0.2-1.2c0.1,0,0.1,0,0.2,0c0.1,0.4,0.3,0.8,0.3,1.2c0.1,3.4,0.2,6.7,0.2,10.1c0,6.9,0,13.8,0,20.8
			C82,50.6,82,51.1,82,51.7z"/>
		<path d="M45.8,26.1c-2.7,0-5.3,0-8.1,0c0-2.8-0.2-5.5,0.8-8.2c1.4-3.7,4.2-5.6,8.1-5.7c1.6,0,3.2,0.1,4.7,0.5
			c3.9,0.9,6.6,4.4,6.9,8.5c0.2,3-0.3,5.9-1.7,8.5c-2.5,4.5-5.2,8.8-7.8,13.2c-0.2,0.3-0.6,0.5-1,0.5c-2.9,0-5.8,0-8.8,0
			c0.1-0.3,0.2-0.5,0.3-0.7c2.7-4.7,5.6-9.4,8.2-14.2c1-1.9,1.7-4.1,2.3-6.2c0.2-0.8,0.1-1.7,0-2.6c-0.1-0.9-0.7-1.6-1.8-1.6
			c-1,0-1.6,0.6-1.8,1.6c-0.2,1.3-0.2,2.5-0.2,3.8C45.8,24.4,45.8,25.3,45.8,26.1z"/>
		<path d="M24.2,13.1c2.7,0.1,5.2,0.1,7.5,1.6c1.9,1.2,2.9,3.1,3.1,5.4c0.1,1.1,0.2,2.3,0.2,3.4c0,7.1-0.1,14.1-0.1,21.2
			c0,0.5-0.1,1.1-0.1,1.6c-0.4,3-2,4.8-5,5.3c-1.8,0.3-3.6,0.3-5.5,0.4c0-2.3,0-4.4,0-6.5c0-0.2,0.1-0.4,0.2-0.5
			c1-0.6,1.1-1.6,1.1-2.6c0-6.8,0.1-13.6,0-20.4c0-0.7-0.6-1.3-1-2c-0.1-0.2-0.3-0.4-0.3-0.5C24.2,17.3,24.2,15.3,24.2,13.1z"/>
		<path d="M13.4,20.5c0.2,0.1,0.3,0.3,0.7,0.6c0-2.8,0-5.4,0-8c2.9,0,5.6,0,8.4,0c0,12.8,0,25.6,0,38.6c-3,0-6.1,0-9.2,0
			C13.4,41.3,13.4,30.9,13.4,20.5z"/>
		<path d="M96.8,12c1.9,0.5,3.6,0.9,5.3,1.4c0.4,0.1,0.9,0.2,1.3,0.2c0.6,0,0.9,0,0.7,0.7c-0.1,0.2,0,0.7,0.2,0.9
			c0.2,0.1,0.5,0,1.2,0c0.2,0.6,0.5,1.5,0.6,2.3c0.2,1.7,0.2,3.4,0.3,5.1c0.1,3-0.6,5.5-3.5,6.9c0.1,0.2,0.1,0.3,0.1,0.3
			c2.4,1.3,3.5,3.4,3.5,6c0.1,2.9,0.2,5.9-0.1,8.8c-0.3,4.2-2.8,6.7-7,7.5c-0.8,0.2-1.6,0.2-2.7,0.3c0.3-2.4-0.6-4.7,0.5-6.9
			c0.3-0.7,0.3-1.6,0.3-2.4c0-2.1,0.1-4.1,0-6.2c0-0.9-0.4-1.9-0.7-2.8c-0.1-0.3-0.1-0.6-0.1-0.9c0-1.2-0.1-2.3,0-3.5
			c0.1-1.2,0.4-2.3,0.5-3.5c0.2-2.6,0.7-5.3-0.4-7.9c-0.1-0.1-0.1-0.3-0.1-0.4C96.8,16.2,96.8,14.3,96.8,12z"/>
		<path d="M88.4,29.6c-3.6-3.4-3.4-7.9-1.9-12.3c1.3-3.9,4.8-4.9,8.8-5.1c-0.3,2.3,0.6,4.6-0.5,6.8c-0.3,0.5-0.2,1.2-0.3,1.8
			c0,1.4-0.1,2.8,0,4.2c0,0.7,0.3,1.4,0.5,2c0.1,0.2,0.2,0.4,0.2,0.6c0,2,0.6,4.2-0.1,5.9c-1.4,3.2-0.6,6.4-0.8,9.6
			c-0.1,1,0.5,2,0.8,3.1c0.1,0.2,0.1,0.4,0.2,0.6c0,1.8,0,3.6,0,5.4c-3.6,0.8-8.3-2-9.3-5.6c-1.1-4.4-1.1-8.8,0-13.2
			C86.3,32.1,87.6,30.9,88.4,29.6z"/>
		<path d="M69,51.8c-1.9-0.5-2.6,0.8-3.6,1.8c-0.4,0.4-0.6,1.4-1.5,0.5c-0.1-0.1-0.7,0.1-1,0.2c-0.4,0.1-0.7,0.3-1.1,0.5
			c-0.1-0.1-0.1-0.2-0.2-0.3c0.4-0.2,0.7-0.5,1-0.7c-0.2-0.4-0.3-0.8-0.5-1.2c-0.1-0.3-0.2-0.7-0.5-0.8c-1-0.7-1.2-1.5-0.7-2.6
			c0.2-0.3,0.2-0.8,0.2-1.2c0-11.1,0-22.3,0-33.4c0-0.4,0-0.7,0-1.1c0.1,0,0.1,0,0.2,0c0.1,0.2,0.2,0.4,0.3,0.7
			c2.4,8,4.7,16.1,7.1,24.1c0.2,0.7,0.3,1.4,0.3,2.1c0,3.3,0,6.6,0,9.9C69,50.8,69,51.2,69,51.8z"/>
		<path d="M37.7,51.5c0-2,0-4.1,0-6.3c6.5,0,13.1,0,19.6,0c0,2.2,0,4.3,0,6.4c-1.4,0-2.7,0-4,0c-1.3,0-2.6,0.1-4,0.1
			c-1.2,0-2.3-0.2-3.5-0.2c-0.4,0-0.9,0.2-1.3,0.2c-0.3,0-0.7-0.1-1-0.1c-1.1-0.2-2.2-0.8-3.3,0.1c-0.2,0.1-0.5,0.1-0.7,0
			C39,51.6,38.4,51.5,37.7,51.5z"/>
	</g>
	<g>
		<path d="M0.5,71.9h2.3c1.5,0,2.5,0.1,3,0.2c0.5,0.1,0.9,0.4,1.2,0.7c0.3,0.3,0.4,0.7,0.5,1c0.1,0.4,0.1,1.1,0.1,2.3v4.2
			c0,1.1-0.1,1.8-0.2,2.1S7.3,83.1,7,83.3c-0.3,0.2-0.6,0.3-0.9,0.4c-0.4,0.1-0.9,0.1-1.7,0.1H0.5V71.9z M3.6,74v7.8
			c0.4,0,0.7-0.1,0.8-0.3c0.1-0.2,0.2-0.7,0.2-1.5v-4.6c0-0.5,0-0.9-0.1-1c0-0.2-0.1-0.3-0.2-0.3C4.2,74,4,74,3.6,74z"/>
		<path d="M8.9,71.9H14v2.4H12v2.3h1.9v2.3H12v2.6h2.3v2.4H8.9V71.9z"/>
		<path d="M21.2,71.9v2.4h-1.8v9.5h-3.1v-9.5h-1.8v-2.4H21.2z"/>
		<path d="M29,78.9c0,1.2,0,2-0.1,2.5c-0.1,0.5-0.2,1-0.5,1.4c-0.3,0.4-0.7,0.7-1.2,0.9c-0.5,0.2-1.1,0.3-1.8,0.3
			c-0.6,0-1.2-0.1-1.7-0.3c-0.5-0.2-0.9-0.5-1.2-0.9c-0.3-0.4-0.5-0.9-0.6-1.4c-0.1-0.5-0.1-1.3-0.1-2.6v-2c0-1.2,0-2,0.1-2.5
			c0.1-0.5,0.2-1,0.5-1.4c0.3-0.4,0.7-0.7,1.2-0.9c0.5-0.2,1.1-0.3,1.8-0.3c0.6,0,1.2,0.1,1.7,0.3c0.5,0.2,0.9,0.5,1.2,0.9
			c0.3,0.4,0.5,0.9,0.6,1.4c0.1,0.5,0.1,1.3,0.1,2.6V78.9z M25.9,75c0-0.6,0-0.9-0.1-1.1c-0.1-0.2-0.2-0.2-0.4-0.2
			c-0.2,0-0.3,0.1-0.4,0.2c-0.1,0.1-0.1,0.5-0.1,1.1v5.6c0,0.7,0,1.1,0.1,1.3c0.1,0.2,0.2,0.2,0.4,0.2c0.2,0,0.3-0.1,0.4-0.3
			s0.1-0.6,0.1-1.3V75z"/>
		<path d="M37,71.9v11.9h-2.7l-1.6-5.4v5.4h-2.6V71.9h2.6l1.7,5.4v-5.4H37z"/>
		<path d="M43.6,71.9l1.8,11.9h-3.2l-0.2-2.1H41l-0.2,2.1h-3.2l1.6-11.9H43.6z M42,79.6c-0.2-1.3-0.3-3-0.5-5
			c-0.3,2.3-0.5,3.9-0.6,5H42z"/>
		<path d="M51.3,71.9v2.4h-1.8v9.5h-3.1v-9.5h-1.8v-2.4H51.3z"/>
		<path d="M52,71.9h5.2v2.4h-2.1v2.3h1.9v2.3h-1.9v2.6h2.3v2.4H52V71.9z"/>
		<path d="M68.3,71.9l-1.6,11.9H62l-1.8-11.9h3.3c0.4,3.3,0.7,6.1,0.8,8.3c0.2-2.3,0.3-4.3,0.5-6.1l0.2-2.2H68.3z"/>
		<path d="M68.8,71.9H74v2.4h-2.1v2.3h1.9v2.3h-1.9v2.6h2.3v2.4h-5.4V71.9z"/>
		<path d="M82,71.9v11.9h-2.7l-1.6-5.4v5.4h-2.6V71.9h2.6l1.7,5.4v-5.4H82z"/>
		<path d="M89.5,71.9v2.4h-1.8v9.5h-3.1v-9.5h-1.8v-2.4H89.5z"/>
		<path d="M97.2,71.9v8c0,0.9,0,1.5-0.1,1.9c-0.1,0.4-0.2,0.7-0.5,1.1c-0.3,0.4-0.7,0.7-1.1,0.9c-0.5,0.2-1,0.3-1.7,0.3
			c-0.7,0-1.3-0.1-1.9-0.4c-0.5-0.2-1-0.5-1.2-0.9c-0.3-0.4-0.4-0.8-0.5-1.2c0-0.4-0.1-1.3-0.1-2.6v-7h3.1v8.9c0,0.5,0,0.9,0.1,1
			c0.1,0.1,0.2,0.2,0.3,0.2c0.2,0,0.3-0.1,0.4-0.2c0.1-0.2,0.1-0.5,0.1-1.1v-8.8H97.2z"/>
		<path d="M98.4,71.9h2.2c1.5,0,2.5,0.1,3,0.2s0.9,0.4,1.3,0.9c0.3,0.5,0.5,1.2,0.5,2.2c0,0.9-0.1,1.6-0.3,1.9
			c-0.2,0.3-0.7,0.5-1.4,0.6c0.6,0.2,1,0.4,1.2,0.6c0.2,0.3,0.3,0.5,0.4,0.7c0.1,0.2,0.1,0.8,0.1,1.8v3.1h-2.9v-4
			c0-0.6-0.1-1-0.2-1.2c-0.1-0.2-0.4-0.2-0.8-0.2v5.4h-3.1V71.9z M101.5,74v2.6c0.3,0,0.6,0,0.7-0.1c0.1-0.1,0.2-0.4,0.2-0.9v-0.7
			c0-0.4-0.1-0.6-0.2-0.7C102.2,74,101.9,74,101.5,74z"/>
		<path d="M106.6,71.9h5.2v2.4h-2.1v2.3h1.9v2.3h-1.9v2.6h2.3v2.4h-5.4V71.9z"/>
		<path d="M119.4,75.5h-2.9v-0.9c0-0.4,0-0.7-0.1-0.8c-0.1-0.1-0.2-0.2-0.4-0.2c-0.2,0-0.3,0.1-0.4,0.2c-0.1,0.2-0.1,0.4-0.1,0.7
			c0,0.4,0.1,0.7,0.2,0.9c0.1,0.2,0.4,0.4,0.9,0.7c1.4,0.8,2.2,1.5,2.6,2c0.4,0.5,0.5,1.4,0.5,2.5c0,0.8-0.1,1.5-0.3,1.9
			s-0.6,0.7-1.2,1s-1.2,0.4-2,0.4c-0.8,0-1.5-0.2-2.1-0.5c-0.6-0.3-1-0.7-1.2-1.2c-0.2-0.5-0.3-1.2-0.3-2.1v-0.8h2.9V81
			c0,0.4,0,0.7,0.1,0.9c0.1,0.1,0.2,0.2,0.4,0.2c0.2,0,0.4-0.1,0.5-0.2c0.1-0.2,0.2-0.4,0.2-0.7c0-0.7-0.1-1.2-0.3-1.4
			c-0.2-0.2-0.7-0.6-1.4-1.1c-0.8-0.5-1.3-0.9-1.5-1.1c-0.3-0.2-0.5-0.5-0.6-1c-0.2-0.4-0.2-0.9-0.2-1.6c0-0.9,0.1-1.6,0.3-2
			c0.2-0.4,0.6-0.8,1.1-1c0.5-0.2,1.1-0.4,1.9-0.4c0.8,0,1.5,0.1,2.1,0.4c0.6,0.3,0.9,0.6,1.1,1c0.2,0.4,0.3,1.1,0.3,2V75.5z"/>
	</g>
</g>
</svg>
