<?xml version="1.0" encoding="utf-8"?>
<!-- Generator: Adobe Illustrator 21.1.0, SVG Export Plug-In . SVG Version: 6.00 Build 0)  -->
<svg version="1.1" id="Слой_1" xmlns="http://www.w3.org/2000/svg" xmlns:xlink="http://www.w3.org/1999/xlink" x="0px" y="0px"
	 viewBox="0 0 102.6 66.2" enable-background="new 0 0 102.6 66.2" xml:space="preserve">
<g>
	<path fill="none" stroke="#FBCC00" stroke-width="3" stroke-miterlimit="10" d="M95.5,28.4c0.6-2.2,2.2-3.7,4.3-4.5
		c0.8-0.3,1.3-1.2,1.2-2l-0.2-1.5c-0.1-0.8-0.8-1.4-1.6-1.6c-2.2-0.4-3.7-1.9-4.8-3.8c-1.1-1.9-1.3-3.9-0.5-5.9
		c0.3-0.8,0.1-1.7-0.6-2.3l-1.2-0.9c-0.7-0.5-1.6-0.5-2.3,0c-1.9,1.4-4.4,2-6.6,1.4c-2.2-0.6-4-2.3-5-4.5c-0.4-0.8-1.1-1.3-2-1.2
		l-1.5,0.2c-0.9,0.1-1.5,0.8-1.6,1.7c-0.3,2.2-1.4,3.8-3.4,4.9c-2,1.1-4,1.7-6.1,0.9c-0.8-0.3-1.7-0.1-2.2,0.6L60.5,11
		c-0.5,0.7-0.5,1.7,0,2.4c1.4,1.8,2.1,3.9,1.5,6.1c-0.6,2.2-2.3,4-4.5,5c-0.8,0.4-1.3,1.1-1.2,2l0.2,1.5c0.1,0.9,0.8,1.5,1.7,1.6
		c2.2,0.3,3.8,1.4,4.9,3.4c1.1,1.9,1.3,3.9,0.5,5.9c-0.3,0.8-0.1,1.7,0.6,2.3l1.2,0.9c0.7,0.5,1.6,0.5,2.3,0c1.9-1.4,4.4-2,6.6-1.4
		c2.2,0.6,4,2.3,5,4.5c0.4,0.8,1.1,1.3,2,1.2l1.5-0.2c0.9-0.1,1.5-0.8,1.6-1.7c0.3-2.2,1.4-3.8,3.4-4.9c2-1.1,4-1.7,6.1-0.9
		c0.8,0.3,1.7,0.1,2.2-0.6l0.9-1.2c0.5-0.7,0.5-1.7,0-2.4C95.6,32.6,95,30.5,95.5,28.4z"/>
	<path fill="none" stroke="#FBCC00" stroke-width="3" stroke-miterlimit="10" d="M48.7,30.2c-1-2.8-0.2-5.6,1.6-8
		c0.4-0.6,0.4-1.3-0.1-1.8L48.1,18c-0.5-0.5-1.2-0.6-1.9-0.3c-2.6,1.4-5.3,1-8-0.3c-2.7-1.3-4.2-3.3-4.7-6.2
		c-0.1-0.7-0.7-1.2-1.4-1.2l-3.1-0.2c-0.7,0-1.3,0.4-1.5,1.1c-0.9,3-3.1,5.5-5.8,6.5c-2.8,1-6,0.4-8.6-1.4c-0.6-0.4-1.3-0.4-1.8,0.1
		l-2.3,2.1c-0.5,0.5-0.6,1.2-0.3,1.8c1.5,2.6,1.5,5.2,0.3,7.8c-1.3,2.6-3.1,4.7-6,5.3c-0.7,0.1-1.2,0.7-1.2,1.4l-0.2,3.1
		c0,0.7,0.4,1.3,1.1,1.5c3,0.8,5.3,2.5,6.3,5.3c1,2.8,0.4,6-1.4,8.6c-0.4,0.6-0.4,1.3,0.1,1.8l2.1,2.3c0.5,0.5,1.2,0.6,1.8,0.3
		c2.6-1.5,5.2-1.5,7.8-0.3c2.7,1.3,4.2,3.3,4.7,6.2c0.1,0.7,0.7,1.2,1.4,1.2l3.1,0.2c0.7,0,1.3-0.4,1.5-1.1c0.9-3,3.1-5.5,5.8-6.5
		c2.8-1,6-0.4,8.6,1.4c0.6,0.4,1.3,0.4,1.8-0.1l2.3-2.1c0.5-0.5,0.6-1.2,0.3-1.8c-1.5-2.6-1.6-5.2-0.3-7.8c1.3-2.6,3.1-4.7,6-5.3
		c0.7-0.1,1.2-0.7,1.2-1.4l0.2-3.1c0-0.7-0.4-1.3-1.1-1.5C52,34.7,49.7,33,48.7,30.2z"/>
	<path fill="#FBCC00" d="M26.3,26.2l0.5,1.1c1.8-0.6,3.3-0.6,4.5-0.2c1.2,0.4,2.1,1.3,2.7,2.6l0.3,0.6l-4.5,2.1l-0.4-0.8
		c-0.3-0.7-0.8-1.1-1.3-1.2c-0.5-0.1-1.2,0-1.9,0.4c-0.7,0.3-1.3,0.8-1.5,1.2c-0.3,0.5-0.3,1.2,0.1,1.9c0.3,0.6,0.8,1,1.4,1.2
		c0.7,0.3,1.5,0.4,2.3,0.5c0.9,0.1,1.8,0.2,2.8,0.2s1.9,0.1,2.8,0.3c0.9,0.2,1.8,0.5,2.5,0.9c0.8,0.4,1.4,1.1,1.8,2
		c0.6,1.3,0.7,2.6,0.2,3.8c-0.5,1.2-1.5,2.3-3.1,3.3l0.5,1c0.5,1.1,0,2.3-1,2.8h0c-1.1,0.5-2.3,0-2.8-1l-0.5-1
		c-1.8,0.6-3.3,0.7-4.6,0.3C26,47.8,25,47,24.4,45.7l0,0c0.9-1.4,2.6-2.2,4.2-1.9l0.3,0c0.3,0.7,0.8,1.1,1.3,1.1
		c0.6,0.1,1.2-0.1,2-0.4c0.7-0.3,1.3-0.8,1.6-1.2c0.3-0.5,0.3-1.2-0.1-1.9c-0.3-0.6-0.8-1-1.4-1.2c-0.7-0.3-1.4-0.4-2.3-0.5
		c-0.9-0.1-1.8-0.2-2.8-0.2c-1,0-1.9-0.1-2.8-0.3c-0.9-0.2-1.8-0.5-2.5-0.9c-0.8-0.4-1.4-1.1-1.8-2c-0.6-1.3-0.7-2.5-0.2-3.7
		c0.5-1.2,1.5-2.3,3-3.3L22.4,28c-0.5-1.1,0-2.3,1-2.8l0,0C24.6,24.7,25.8,25.1,26.3,26.2z"/>
	<linearGradient id="SVGID_1_" gradientUnits="userSpaceOnUse" x1="65.6047" y1="24.6422" x2="91.6047" y2="24.6422">
		<stop  offset="0" style="stop-color:#FFFFFF"/>
		<stop  offset="1" style="stop-color:#FBCC00"/>
	</linearGradient>
	
		<polyline fill="none" stroke="url(#SVGID_1_)" stroke-width="3" stroke-linecap="round" stroke-linejoin="round" stroke-miterlimit="10" points="
		67.1,29.6 76.1,21.6 80.1,26.6 90.1,19.6 	"/>
	
		<line fill="none" stroke="#FBCC00" stroke-width="3" stroke-linecap="round" stroke-linejoin="round" stroke-miterlimit="10" x1="90.1" y1="19.6" x2="89.1" y2="28.6"/>
	
		<line fill="none" stroke="#FBCC00" stroke-width="3" stroke-linecap="round" stroke-linejoin="round" stroke-miterlimit="10" x1="90.1" y1="19.6" x2="82.1" y2="16.6"/>
</g>
</svg>
